<svg xmlns="http://www.w3.org/2000/svg" viewBox="0 0 1186.29 1186.18" fill="currentColor">
  <path d="M 963.69 130.88 C 862.22 49.18 733.56 0.00 593.09 0.00 C 265.53 0.00 0.00 265.53 0.00 593.09 C 0.00 920.66 265.53 1186.18 593.09 1186.18 C 791.48 1186.18 966.65 1088.42 1074.36 938.86 L 899.04 938.86 C 817.48 1011.09 710.60 1055.33 593.09 1055.33 C 337.81 1055.33 130.88 848.38 130.88 593.12 C 130.88 337.86 337.84 130.91 593.09 130.91 Z"/>
  <path d="M 726.12 150.71 C 790.60 170.24 849.23 203.33 898.52 246.83 L 1073.95 246.83 C 1048.57 211.68 1019.35 179.55 987.11 150.71 L 726.14 150.71 Z Z"/>
  <path d="M 989.75 356.67 C 1031.13 425.91 1055.33 506.59 1055.33 593.09 C 1055.33 679.60 1031.22 759.87 990.03 829.02 L 1137.38 829.02 C 1168.80 756.71 1186.29 676.96 1186.29 593.09 C 1186.29 509.03 1168.66 429.12 1137.11 356.67 Z Z"/>
</svg>
